<?xml version="1.0" encoding="UTF-8"?>
<svg xmlns="http://www.w3.org/2000/svg" xmlns:xlink="http://www.w3.org/1999/xlink" width="32px" height="32px" viewBox="0 0 32 32" version="1.1">
<g id="surface1">
<path style=" stroke:none;fill-rule:nonzero;fill:#ffffff;fill-opacity:1;" d="M 12.738281 23.316406 L 9.886719 23.316406 C 9.1875 23.316406 8.625 22.75 8.625 22.054688 L 8.625 9.957031 C 8.625 9.261719 9.1875 8.699219 9.886719 8.699219 L 12.738281 8.699219 C 13.433594 8.699219 14 9.261719 14 9.957031 L 14 22.054688 C 14 22.75 13.433594 23.316406 12.738281 23.316406 Z M 12.738281 23.316406 "/>
<path style=" stroke:none;fill-rule:nonzero;fill:#ffffff;fill-opacity:1;" d="M 21.792969 23.300781 L 18.941406 23.300781 C 18.246094 23.300781 17.679688 22.738281 17.679688 22.042969 L 17.679688 9.945312 C 17.679688 9.25 18.246094 8.683594 18.941406 8.683594 L 21.792969 8.683594 C 22.492188 8.683594 23.054688 9.25 23.054688 9.945312 L 23.054688 22.042969 C 23.054688 22.738281 22.492188 23.300781 21.792969 23.300781 Z M 21.792969 23.300781 "/>
<path style=" stroke:none;fill-rule:nonzero;fill:#ffffff;fill-opacity:1;" d="M 12.957031 8.71875 C 13.203125 8.949219 13.359375 9.273438 13.359375 9.636719 L 13.359375 21.734375 C 13.359375 22.429688 12.792969 22.996094 12.097656 22.996094 L 9.246094 22.996094 C 9.171875 22.996094 9.097656 22.984375 9.027344 22.972656 C 9.25 23.183594 9.550781 23.316406 9.886719 23.316406 L 12.738281 23.316406 C 13.433594 23.316406 14 22.75 14 22.054688 L 14 9.957031 C 14 9.335938 13.546875 8.824219 12.957031 8.71875 Z M 12.957031 8.71875 "/>
<path style=" stroke:none;fill-rule:nonzero;fill:#ffffff;fill-opacity:1;" d="M 22.011719 8.707031 C 22.257812 8.9375 22.414062 9.261719 22.414062 9.625 L 22.414062 21.722656 C 22.414062 22.417969 21.851562 22.984375 21.15625 22.984375 L 18.300781 22.984375 C 18.226562 22.984375 18.15625 22.972656 18.082031 22.960938 C 18.308594 23.171875 18.609375 23.300781 18.941406 23.300781 L 21.792969 23.300781 C 22.492188 23.300781 23.054688 22.738281 23.054688 22.042969 L 23.054688 9.945312 C 23.054688 9.324219 22.605469 8.8125 22.011719 8.707031 Z M 22.011719 8.707031 "/>
<path style="fill:none;stroke-width:1;stroke-linecap:butt;stroke-linejoin:miter;stroke:#ffffff;stroke-opacity:1;stroke-miterlimit:10;" d="M 39.807129 72.86377 L 30.895996 72.86377 C 28.710938 72.86377 26.953125 71.09375 26.953125 68.920898 L 26.953125 31.115723 C 26.953125 28.942871 28.710938 27.185059 30.895996 27.185059 L 39.807129 27.185059 C 41.97998 27.185059 43.75 28.942871 43.75 31.115723 L 43.75 68.920898 C 43.75 71.09375 41.97998 72.86377 39.807129 72.86377 Z M 39.807129 72.86377 " transform="matrix(0.32,0,0,0.32,0,0)"/>
<path style="fill:none;stroke-width:1;stroke-linecap:butt;stroke-linejoin:miter;stroke:#ffffff;stroke-opacity:1;stroke-miterlimit:10;" d="M 68.103027 72.814941 L 59.191895 72.814941 C 57.019043 72.814941 55.249023 71.057129 55.249023 68.884277 L 55.249023 31.079102 C 55.249023 28.90625 57.019043 27.13623 59.191895 27.13623 L 68.103027 27.13623 C 70.288086 27.13623 72.045898 28.90625 72.045898 31.079102 L 72.045898 68.884277 C 72.045898 71.057129 70.288086 72.814941 68.103027 72.814941 Z M 68.103027 72.814941 " transform="matrix(0.32,0,0,0.32,0,0)"/>
</g>
</svg>
