<?xml version="1.0" standalone="no"?>
<!DOCTYPE svg PUBLIC "-//W3C//DTD SVG 20010904//EN"
 "http://www.w3.org/TR/2001/REC-SVG-20010904/DTD/svg10.dtd">
<svg version="1.0" xmlns="http://www.w3.org/2000/svg"
 width="64.000000pt" height="64.000000pt" viewBox="0 0 64.000000 64.000000"
 preserveAspectRatio="xMidYMid meet">

<g transform="translate(0.000000,64.000000) scale(0.100000,-0.100000)"
fill="#ff00ff" stroke="none">
<path d="M231 603 c-6 -21 -11 -43 -11 -50 0 -27 -40 -35 -82 -18 -49 19 -59
13 -103 -70 l-30 -56 37 -35 c21 -19 38 -43 38 -54 0 -11 -17 -35 -37 -54
l-38 -35 30 -56 c44 -82 53 -89 100 -69 52 21 80 8 90 -43 10 -58 19 -63 101
-63 l73 0 10 37 c6 21 11 44 11 51 0 25 44 35 85 18 47 -20 56 -13 100 69 l30
56 -37 35 c-21 19 -38 43 -38 54 0 11 17 35 38 54 l37 35 -30 56 c-44 82 -53
89 -100 69 -41 -17 -85 -7 -85 18 0 7 -5 30 -11 51 l-10 37 -79 0 -79 0 -10
-37z m163 -213 c65 -63 18 -173 -74 -173 -91 0 -138 107 -75 173 45 47 100 47
149 0z"/>
</g>
</svg>
