<?xml version="1.0" encoding="UTF-8"?>
<svg xmlns="http://www.w3.org/2000/svg" xmlns:xlink="http://www.w3.org/1999/xlink" width="32px" height="32px" viewBox="0 0 32 32" version="1.1">
<g id="surface1">
<path style=" stroke:none;fill:#ffffff);fill-opacity:0.5;" d="M 16 9.75 C 12.546875 9.75 9.75 12.546875 9.75 16 C 9.75 19.453125 12.546875 22.25 16 22.25 C 19.453125 22.25 22.25 19.453125 22.25 16 C 22.25 12.546875 19.453125 9.75 16 9.75 Z M 16 20.75 C 13.375 20.75 11.25 18.625 11.25 16 C 11.25 13.375 13.375 11.25 16 11.25 C 18.625 11.25 20.75 13.375 20.75 16 C 20.75 18.625 18.625 20.75 16 20.75 Z M 16 20.75 "/>
<path style=" stroke:none;fill-rule:nonzero;fill:#ffffff);fill-opacity:0.5;" d="M 30.25 12 L 28.015625 12 C 27.910156 12 27.816406 11.929688 27.78125 11.828125 C 27.636719 11.417969 27.46875 11.011719 27.28125 10.617188 C 27.234375 10.523438 27.253906 10.40625 27.328125 10.328125 L 28.90625 8.75 C 29.589844 8.066406 29.589844 6.957031 28.90625 6.273438 L 25.722656 3.09375 C 25.039062 2.410156 23.929688 2.410156 23.246094 3.09375 L 21.671875 4.671875 C 21.59375 4.746094 21.476562 4.765625 21.382812 4.71875 C 20.988281 4.53125 20.582031 4.363281 20.171875 4.21875 C 20.070312 4.183594 20 4.089844 20 3.984375 L 20 1.75 C 20 0.785156 19.214844 0 18.25 0 L 13.75 0 C 12.785156 0 12 0.785156 12 1.75 L 12 3.984375 C 12 4.089844 11.929688 4.183594 11.828125 4.21875 C 11.417969 4.363281 11.011719 4.53125 10.617188 4.71875 C 10.523438 4.765625 10.40625 4.746094 10.328125 4.671875 L 8.75 3.09375 C 8.066406 2.410156 6.957031 2.410156 6.273438 3.09375 L 3.09375 6.277344 C 2.410156 6.960938 2.410156 8.070312 3.09375 8.753906 L 4.671875 10.328125 C 4.746094 10.40625 4.765625 10.523438 4.71875 10.617188 C 4.53125 11.011719 4.363281 11.417969 4.21875 11.828125 C 4.183594 11.929688 4.089844 12 3.984375 12 L 1.75 12 C 0.785156 12 0 12.785156 0 13.75 L 0 18.25 C 0 19.214844 0.785156 20 1.75 20 L 3.984375 20 C 4.089844 20 4.183594 20.070312 4.21875 20.171875 C 4.363281 20.582031 4.53125 20.988281 4.71875 21.382812 C 4.765625 21.476562 4.746094 21.59375 4.671875 21.671875 L 3.09375 23.25 C 2.410156 23.933594 2.410156 25.042969 3.09375 25.726562 L 6.277344 28.90625 C 6.960938 29.589844 8.070312 29.589844 8.753906 28.90625 L 10.328125 27.328125 C 10.40625 27.253906 10.523438 27.238281 10.617188 27.285156 C 11.011719 27.472656 11.417969 27.640625 11.828125 27.785156 C 11.929688 27.820312 12 27.914062 12 28.019531 L 12 30.25 C 12 31.214844 12.785156 32 13.75 32 L 18.25 32 C 19.214844 32 20 31.214844 20 30.25 L 20 28.015625 C 20 27.910156 20.070312 27.816406 20.171875 27.78125 C 20.582031 27.636719 20.988281 27.46875 21.382812 27.28125 C 21.476562 27.234375 21.59375 27.253906 21.671875 27.328125 L 23.25 28.90625 C 23.933594 29.589844 25.042969 29.589844 25.726562 28.90625 L 28.90625 25.722656 C 29.589844 25.039062 29.589844 23.929688 28.90625 23.246094 L 27.328125 21.671875 C 27.253906 21.59375 27.238281 21.476562 27.285156 21.382812 C 27.472656 20.988281 27.640625 20.582031 27.785156 20.171875 C 27.820312 20.070312 27.914062 20 28.019531 20 L 30.25 20 C 31.214844 20 32 19.214844 32 18.25 L 32 13.75 C 32 12.785156 31.214844 12 30.25 12 Z M 30.5 18.25 C 30.5 18.386719 30.386719 18.5 30.25 18.5 L 28.015625 18.5 C 27.273438 18.5 26.613281 18.972656 26.367188 19.671875 C 26.238281 20.035156 26.09375 20.390625 25.925781 20.738281 C 25.601562 21.40625 25.738281 22.210938 26.265625 22.738281 L 27.84375 24.316406 C 27.9375 24.414062 27.9375 24.570312 27.84375 24.667969 L 24.664062 27.84375 C 24.566406 27.941406 24.40625 27.941406 24.308594 27.84375 L 22.734375 26.265625 C 22.207031 25.742188 21.402344 25.605469 20.734375 25.929688 C 20.382812 26.09375 20.027344 26.242188 19.664062 26.371094 C 18.964844 26.617188 18.496094 27.277344 18.496094 28.019531 L 18.496094 30.25 C 18.496094 30.386719 18.382812 30.5 18.246094 30.5 L 13.75 30.5 C 13.613281 30.5 13.5 30.386719 13.5 30.25 L 13.5 28.015625 C 13.5 27.273438 13.027344 26.613281 12.328125 26.367188 C 11.964844 26.238281 11.609375 26.09375 11.261719 25.925781 C 10.59375 25.601562 9.789062 25.738281 9.261719 26.265625 L 7.683594 27.84375 C 7.585938 27.9375 7.429688 27.9375 7.332031 27.84375 L 4.15625 24.664062 C 4.058594 24.566406 4.058594 24.40625 4.15625 24.308594 L 5.734375 22.734375 C 6.257812 22.207031 6.394531 21.402344 6.070312 20.734375 C 5.90625 20.382812 5.757812 20.027344 5.628906 19.664062 C 5.382812 18.96875 4.722656 18.5 3.984375 18.5 L 1.75 18.5 C 1.613281 18.5 1.5 18.386719 1.5 18.25 L 1.5 13.75 C 1.5 13.613281 1.613281 13.5 1.75 13.5 L 3.984375 13.5 C 4.726562 13.5 5.386719 13.027344 5.632812 12.328125 C 5.761719 11.964844 5.90625 11.609375 6.074219 11.261719 C 6.398438 10.59375 6.261719 9.789062 5.734375 9.261719 L 4.15625 7.683594 C 4.0625 7.585938 4.0625 7.429688 4.15625 7.332031 L 7.335938 4.15625 C 7.433594 4.058594 7.59375 4.058594 7.691406 4.15625 L 9.265625 5.734375 C 9.792969 6.257812 10.597656 6.394531 11.265625 6.070312 C 11.617188 5.90625 11.972656 5.757812 12.335938 5.628906 C 13.03125 5.382812 13.5 4.722656 13.5 3.984375 L 13.5 1.75 C 13.5 1.613281 13.613281 1.5 13.75 1.5 L 18.25 1.5 C 18.386719 1.5 18.5 1.613281 18.5 1.75 L 18.5 3.984375 C 18.5 4.726562 18.972656 5.386719 19.671875 5.632812 C 20.035156 5.761719 20.390625 5.90625 20.738281 6.074219 C 21.40625 6.398438 22.210938 6.261719 22.738281 5.734375 L 24.316406 4.15625 C 24.414062 4.0625 24.570312 4.0625 24.667969 4.15625 L 27.851562 7.339844 C 27.945312 7.4375 27.945312 7.59375 27.851562 7.691406 L 26.273438 9.269531 C 25.746094 9.796875 25.609375 10.597656 25.933594 11.269531 C 26.101562 11.617188 26.246094 11.972656 26.375 12.335938 C 26.621094 13.039062 27.28125 13.507812 28.023438 13.507812 L 30.25 13.507812 C 30.386719 13.507812 30.5 13.621094 30.5 13.757812 Z M 30.5 18.25 "/>
</g>
</svg>
