<?xml version="1.0" encoding="UTF-8"?>
<svg xmlns="http://www.w3.org/2000/svg" xmlns:xlink="http://www.w3.org/1999/xlink" width="32px" height="32px" viewBox="0 0 32 32" version="1.1">
<g id="surface1">
<path style=" stroke:none;fill-rule:nonzero;fill:#ffffff;fill-opacity:1;" d="M 13.539062 4.308594 C 13.207031 4.308594 12.917969 4.429688 12.675781 4.675781 L 6.269531 11.078125 L 1.230469 11.078125 C 0.898438 11.078125 0.609375 11.199219 0.367188 11.445312 C 0.121094 11.6875 0 11.976562 0 12.308594 L 0 19.695312 C 0 20.027344 0.121094 20.316406 0.367188 20.5625 C 0.609375 20.804688 0.898438 20.925781 1.230469 20.925781 L 6.269531 20.925781 L 12.675781 27.332031 C 12.917969 27.574219 13.207031 27.699219 13.539062 27.699219 C 13.875 27.699219 14.164062 27.574219 14.40625 27.332031 C 14.648438 27.089844 14.773438 26.800781 14.773438 26.464844 L 14.773438 5.539062 C 14.773438 5.207031 14.648438 4.917969 14.40625 4.675781 C 14.164062 4.429688 13.875 4.308594 13.539062 4.308594 Z M 13.539062 4.308594 "/>
<path style=" stroke:none;fill-rule:nonzero;fill:#ffffff;fill-opacity:1;" d="M 21.339844 18.722656 C 21.886719 17.882812 22.15625 16.976562 22.15625 16.003906 C 22.15625 15.027344 21.886719 14.117188 21.339844 13.269531 C 20.796875 12.425781 20.074219 11.828125 19.175781 11.480469 C 19.046875 11.417969 18.886719 11.386719 18.695312 11.386719 C 18.363281 11.386719 18.074219 11.503906 17.828125 11.742188 C 17.585938 11.980469 17.464844 12.269531 17.464844 12.617188 C 17.464844 12.886719 17.542969 13.113281 17.695312 13.300781 C 17.847656 13.484375 18.035156 13.644531 18.253906 13.78125 C 18.472656 13.914062 18.6875 14.0625 18.90625 14.222656 C 19.125 14.382812 19.3125 14.609375 19.464844 14.90625 C 19.617188 15.199219 19.695312 15.566406 19.695312 16.003906 C 19.695312 16.4375 19.617188 16.804688 19.464844 17.097656 C 19.3125 17.394531 19.125 17.621094 18.90625 17.78125 C 18.6875 17.941406 18.472656 18.089844 18.253906 18.222656 C 18.035156 18.359375 17.847656 18.519531 17.695312 18.703125 C 17.542969 18.890625 17.464844 19.117188 17.464844 19.386719 C 17.464844 19.734375 17.585938 20.027344 17.828125 20.261719 C 18.074219 20.5 18.363281 20.621094 18.695312 20.621094 C 18.886719 20.621094 19.046875 20.585938 19.175781 20.523438 C 20.074219 20.164062 20.796875 19.5625 21.339844 18.722656 Z M 21.339844 18.722656 "/>
<path style=" stroke:none;fill-rule:nonzero;fill:#ffffff;fill-opacity:1;" d="M 25.445312 21.4375 C 26.535156 19.777344 27.082031 17.964844 27.082031 16.003906 C 27.082031 14.039062 26.535156 12.230469 25.445312 10.566406 C 24.355469 8.90625 22.914062 7.699219 21.117188 6.941406 C 20.953125 6.878906 20.785156 6.847656 20.621094 6.847656 C 20.285156 6.847656 19.996094 6.96875 19.753906 7.210938 C 19.511719 7.457031 19.386719 7.746094 19.386719 8.078125 C 19.386719 8.578125 19.636719 8.957031 20.136719 9.214844 C 20.855469 9.585938 21.34375 9.867188 21.601562 10.058594 C 22.550781 10.75 23.289062 11.621094 23.820312 12.664062 C 24.355469 13.710938 24.621094 14.824219 24.621094 16.003906 C 24.621094 17.183594 24.355469 18.292969 23.820312 19.339844 C 23.289062 20.386719 22.546875 21.253906 21.601562 21.945312 C 21.34375 22.136719 20.855469 22.421875 20.136719 22.792969 C 19.636719 23.046875 19.386719 23.425781 19.386719 23.925781 C 19.386719 24.261719 19.511719 24.550781 19.753906 24.792969 C 19.996094 25.035156 20.292969 25.160156 20.636719 25.160156 C 20.792969 25.160156 20.953125 25.125 21.117188 25.0625 C 22.914062 24.304688 24.355469 23.097656 25.445312 21.4375 Z M 25.445312 21.4375 "/>
<path style=" stroke:none;fill-rule:nonzero;fill:#ffffff;fill-opacity:1;" d="M 29.5625 7.875 C 27.933594 5.410156 25.765625 3.589844 23.0625 2.421875 C 22.894531 2.359375 22.726562 2.328125 22.5625 2.328125 C 22.230469 2.328125 21.941406 2.449219 21.695312 2.691406 C 21.453125 2.9375 21.332031 3.226562 21.332031 3.558594 C 21.332031 4.019531 21.582031 4.398438 22.082031 4.695312 C 22.171875 4.746094 22.316406 4.8125 22.511719 4.894531 C 22.710938 4.980469 22.855469 5.046875 22.945312 5.097656 C 23.535156 5.417969 24.0625 5.746094 24.523438 6.078125 C 26.101562 7.246094 27.332031 8.699219 28.21875 10.445312 C 29.101562 12.1875 29.542969 14.039062 29.542969 16.003906 C 29.542969 17.964844 29.101562 19.816406 28.21875 21.5625 C 27.332031 23.304688 26.101562 24.761719 24.523438 25.925781 C 24.0625 26.261719 23.535156 26.585938 22.945312 26.910156 C 22.855469 26.960938 22.710938 27.027344 22.511719 27.109375 C 22.316406 27.191406 22.171875 27.261719 22.082031 27.3125 C 21.582031 27.605469 21.332031 27.984375 21.332031 28.445312 C 21.332031 28.78125 21.453125 29.070312 21.695312 29.3125 C 21.941406 29.554688 22.226562 29.679688 22.5625 29.679688 C 22.726562 29.679688 22.894531 29.644531 23.0625 29.582031 C 25.765625 28.414062 27.933594 26.597656 29.5625 24.128906 C 31.191406 21.660156 32.003906 18.953125 32.003906 16.003906 C 32.003906 13.054688 31.191406 10.34375 29.5625 7.875 Z M 29.5625 7.875 "/>
</g>
</svg>
